<?xml version="1.0" encoding="UTF-8" standalone="no"?>
<!DOCTYPE svg PUBLIC "-//W3C//DTD SVG 1.1//EN" "http://www.w3.org/Graphics/SVG/1.1/DTD/svg11.dtd">
<!-- Created with Vectornator (http://vectornator.io/) -->
<svg height="100%" stroke-miterlimit="10" style="fill-rule:nonzero;clip-rule:evenodd;stroke-linecap:round;stroke-linejoin:round;" version="1.1" viewBox="0 0 3000 3000" width="100%" xml:space="preserve" xmlns="http://www.w3.org/2000/svg" xmlns:vectornator="http://vectornator.io" xmlns:xlink="http://www.w3.org/1999/xlink">
<defs>
<linearGradient gradientTransform="matrix(1 0 0 1 0 0)" gradientUnits="userSpaceOnUse" id="LinearGradient" x1="0" x2="3000" y1="1500" y2="1500">
<stop offset="0" stop-color="#a07467" stop-opacity="0.923423"/>
<stop offset="0.241736" stop-color="#bf9181"/>
<stop offset="1" stop-color="#faaca2"/>
</linearGradient>
<clipPath id="TextBounds">
<rect height="3000" width="3000" x="-0.000244536" y="-18.425"/>
</clipPath>
<linearGradient gradientTransform="matrix(1 0 0 1 -7.58787 0)" gradientUnits="userSpaceOnUse" id="LinearGradient_2" x1="7.58763" x2="3007.59" y1="1481.58" y2="1481.58">
<stop offset="0" stop-color="#2aabee"/>
<stop offset="1" stop-color="#229ed9"/>
</linearGradient>
<filter color-interpolation-filters="sRGB" filterUnits="userSpaceOnUse" height="2587.95" id="Filter" width="2587.95" x="191.849" y="189.339">
<feDropShadow dx="10.4249" dy="1.73649" flood-color="#bfbfbf" flood-opacity="1" in="SourceGraphic" result="Shadow" stdDeviation="13.8045"/>
</filter>
</defs>
<clipPath id="ArtboardFrame">
<rect height="3000" width="3000" x="0" y="0"/>
</clipPath>
<g clip-path="url(#ArtboardFrame)" id="Layer-2" opacity="0.74" vectornator:layerName="Layer 2" visibility="hidden">
<path d="M3000 1.16255e-13L0 1.16255e-13L0 3000L3000 3000L3000 1.16255e-13Z" fill="url(#LinearGradient)" fill-rule="nonzero" opacity="1" stroke="#000000" stroke-linecap="butt" stroke-linejoin="miter" stroke-width="2"/>
</g>
<g clip-path="url(#ArtboardFrame)" id="Layer-3" vectornator:layerName="Layer 3">
<path d="M3000 0L0 0L0 3000L3000 3000L3000 0Z" fill="#d1ffe6" fill-rule="nonzero" opacity="0.73062" stroke="#000000" stroke-linecap="butt" stroke-linejoin="miter" stroke-width="2" vectornator:blendMode="difference"/>
</g>
<g id="Layer-1" vectornator:layerName="Layer 1">
<path clip-path="url(#TextBounds)" d="M209.034 1481.58C209.034 2174.35 783.864 2747.94 1475.4 2747.94C2168.17 2747.94 2741.76 2173.11 2741.76 1480.33C2741.76 788.8 2168.17 215.211 1475.4 215.212C783.863 215.212 209.034 790.042 209.034 1481.58ZM420.094 1481.58C420.094 895.572 889.394 427.514 1475.4 427.514C2061.4 427.514 2530.7 894.33 2530.7 1480.33C2530.7 2066.34 2061.4 2535.64 1475.4 2536.88C889.394 2538.12 420.094 2067.58 420.094 1481.58ZM1474.16 2288.57C1557.34 2288.57 1619.42 2179.32 1619.42 2043.99L1619.42 1778.3C1619.42 1746.02 1624.38 1736.09 1646.73 1714.98L2128.44 1273C2145.83 1256.86 2155.76 1236.99 2155.76 1214.65L2155.76 1137.67C2155.76 1111.6 2130.93 1096.7 2104.85 1107.87L1616.93 1328.87L1582.17 1019.72L1793.23 904.262C1813.09 893.089 1823.03 875.707 1823.03 848.393L1823.03 819.838C1823.03 796.249 1805.65 780.109 1782.06 780.109L1165.01 780.109C1141.42 780.109 1125.28 796.249 1125.28 819.838L1125.28 848.393C1125.28 875.707 1135.22 893.089 1155.08 904.262L1366.14 1019.72L1331.38 1328.87L843.457 1107.87C817.385 1096.7 792.554 1111.6 792.554 1137.67L792.554 1214.65C792.554 1236.99 801.245 1256.86 819.868 1273L1301.58 1714.98C1323.93 1736.09 1328.9 1746.02 1328.9 1778.3L1328.9 2043.99C1328.9 2179.32 1390.97 2288.57 1474.16 2288.57Z" fill="url(#LinearGradient_2)" filter="url(#Filter)" stroke="none" vectornator:shadowAngle="0.165057" vectornator:shadowColor="#bfbfbf" vectornator:shadowOffset="10.5685" vectornator:shadowOpacity="1" vectornator:shadowRadius="27.609"/>
</g>
</svg>
